<?xml version="1.0" encoding="UTF-8"?>
<svg width="248px" height="38px" viewBox="0 0 248 38" version="1.1" preserveAspectRatio="none" xmlns="http://www.w3.org/2000/svg" xmlns:xlink="http://www.w3.org/1999/xlink">
    <title>SaltWire-logo</title>
    <g id="Page-1" stroke="none" stroke-width="1" fill="none" fill-rule="evenodd">
        <g id="Artboard" transform="translate(-235.000000, -357.000000)" fill="#FFFFFE">
            <g id="SaltWire-logo" transform="translate(235.000000, 357.000000)">
                <path d="M23.788,30.629 C23.199,32.264 22.246,33.67 20.929,34.76 C18.296,36.848 14.938,37.756 11.398,37.393 C9.446,37.166 6.938,36.496 5.169,35.588 C3.398,34.637 1.676,33.352 0.496,31.855 C-0.276,30.855 -0.14,29.449 0.859,28.678 C1.813,27.906 3.265,28.088 4.036,29.041 C5.669,31.129 9.111,32.951 11.897,32.898 C14.35,32.854 16.436,32.537 18.069,31.219 C19.387,30.176 20.022,28.27 19.659,26.635 C18.887,23.459 15.982,22.416 11.262,21.098 C9.719,20.689 6.042,19.328 5.726,19.146 C5.68,19.102 3.319,17.513 2.548,16.56 C2.534,16.543 2.52,16.525 2.506,16.508 C1.621,15.43 1,14.132 0.687,12.702 C0.278,11.068 0.369,9.344 0.959,7.709 C1.504,6.075 2.503,4.623 3.818,3.579 C6.405,1.491 9.81,0.539 13.35,0.947 C15.256,1.174 16.728,1.623 18.452,2.576 C20.221,3.529 21.464,4.986 22.689,6.484 C23.726,7.753 23.279,8.844 22.327,9.661 C21.328,10.432 19.921,10.25 19.15,9.252 C17.47,7.165 15.619,5.758 12.85,5.44 C10.491,5.168 8.313,5.758 6.632,7.074 C5.317,8.164 4.681,10.025 5.09,11.658 C5.816,14.835 8.849,15.357 13.568,16.674 C15.156,17.127 22.525,18.303 24.312,25.398 C24.723,27.031 24.333,28.996 23.788,30.629" id="Fill-9"></path>
                <path d="M92.593,36.939 L72.805,36.939 C71.579,36.939 70.535,35.939 70.535,34.67 L70.535,3.533 C70.535,2.264 71.579,1.266 72.805,1.266 C74.075,1.266 75.074,2.264 75.074,3.533 L75.074,32.4 L92.593,32.4 C93.863,32.4 94.862,33.398 94.862,34.67 C94.862,35.939 93.863,36.939 92.593,36.939" id="Fill-11"></path>
                <path d="M155.842,37.074 C154.889,37.074 154.025,36.484 153.707,35.576 L144.359,10.025 L135.053,35.576 C134.691,36.484 133.873,37.074 132.921,37.074 C131.967,37.074 131.104,36.484 130.787,35.576 L119.304,4.17 C118.85,2.989 118.911,1.891 120.091,1.438 C121.271,1.028 123.117,1.445 123.571,2.627 L132.921,28.18 L142.224,2.627 C142.542,1.719 143.405,1.129 144.359,1.129 C145.31,1.129 146.173,1.719 146.492,2.627 L155.842,28.18 L165.146,2.627 C165.6,1.445 166.869,0.856 168.051,1.266 C169.23,1.719 169.865,2.989 169.41,4.17 L157.975,35.576 C157.656,36.484 156.793,37.074 155.842,37.074" id="Fill-12"></path>
                <path d="M177.818,36.939 C176.592,36.939 175.549,35.939 175.549,34.67 L175.549,3.533 C175.549,2.309 176.592,1.266 177.818,1.266 C179.088,1.266 180.088,2.309 180.088,3.533 L180.088,34.67 C180.088,35.939 179.088,36.939 177.818,36.939" id="Fill-13"></path>
                <path d="M190.877,36.939 C189.607,36.939 188.607,35.895 188.607,34.67 L188.607,3.533 C188.607,2.264 189.607,1.266 190.877,1.266 L204.357,1.266 C204.537,1.266 205.609,1.342 207.033,1.627 C209.285,2.078 210.662,2.713 212.094,3.902 C213.295,4.901 214.234,6.242 214.766,7.655 C215.156,8.697 215.416,9.543 215.385,10.993 C215.295,15.259 213.57,18.572 210.166,20.525 C208.936,21.189 206.771,21.662 205.158,21.809 C207.529,24.432 214.273,31.541 216.291,33.771 C217.221,34.797 216.713,36.748 215.414,37.191 C214.891,37.4 214.131,37.666 213.252,37.031 C212.234,36.297 205.895,29.367 203.254,26.447 C202.098,25.168 200.666,23.762 199.934,23.029 C199.09,22.053 198.047,21.295 198.184,20.115 C198.275,18.936 199.275,18.074 200.453,18.074 C203.676,18.074 206.172,17.574 207.941,16.575 C209.939,15.441 210.793,13.189 210.846,10.993 C210.873,9.932 210.715,9.357 209.979,8.209 C209.459,7.395 208.807,6.972 207.863,6.549 C206.865,6.101 204.494,5.803 204.357,5.803 L193.146,5.803 L193.146,34.67 C193.146,35.895 192.146,36.939 190.877,36.939" id="Fill-14"></path>
                <path d="M247.645,34.623 C247.645,35.895 246.646,36.893 245.375,36.893 L223.682,36.893 C222.457,36.893 221.412,35.895 221.412,34.623 L221.412,3.533 C221.412,2.264 222.457,1.266 223.682,1.266 L244.922,1.266 C246.193,1.266 247.189,2.264 247.189,3.533 C247.189,4.805 246.193,5.803 244.922,5.803 L225.951,5.803 L225.951,16.742 L242.742,16.742 C244.016,16.742 245.012,17.785 245.012,19.01 C245.012,20.281 244.016,21.279 242.742,21.279 L225.951,21.279 L225.951,32.354 L245.375,32.354 C246.646,32.354 247.645,33.352 247.645,34.623" id="Fill-15"></path>
                <path d="M37.808,26.73 L46.536,8.707 L52.375,20.646 C45.919,22.244 41.18,24.537 37.808,26.73 Z M58.701,23.232 C61.446,22.807 64.466,22.514 67.774,22.396 L67.774,18.629 C63.799,18.762 60.2,19.135 56.969,19.689 L48.58,2.535 C48.216,1.764 47.399,1.266 46.536,1.266 C45.675,1.266 44.902,1.764 44.494,2.535 L29.38,33.67 C28.882,34.67 29.199,35.85 30.062,36.484 C30.47,36.803 30.97,36.938 31.424,36.938 C31.967,36.938 32.557,36.711 32.966,36.303 C32.977,36.291 33.315,35.91 33.486,35.711 C33.655,35.512 33.869,35.217 33.869,35.217 C33.933,35.119 38.984,27.676 53.953,24.148 L55.988,28.277 C56.044,28.293 59.698,35.621 59.698,35.621 C60.244,36.711 61.604,37.211 62.74,36.621 C63.875,36.076 64.328,34.715 63.784,33.625 L58.701,23.232 L58.701,23.232 Z" id="Fill-16"></path>
                <path d="M121.315,1.266 L96.853,1.266 C95.581,1.266 94.582,2.264 94.582,3.533 C94.582,4.805 95.581,5.803 96.853,5.803 L106.837,5.803 L106.837,30.494 C102.097,26.51 92.801,20.627 78.078,19.002 L78.078,22.801 C98.474,25.236 107.6,36.481 107.697,36.605 L107.796,36.529 C108.165,36.785 108.614,36.938 109.106,36.938 C110.332,36.938 111.376,35.939 111.376,34.67 L111.376,5.803 L121.315,5.803 C122.586,5.803 123.584,4.805 123.584,3.533 C123.584,2.264 122.586,1.266 121.315,1.266" id="Fill-17"></path>
            </g>
        </g>
    </g>
</svg>